<svg width="2017" height="2017" xmlns="http://www.w3.org/2000/svg" xmlns:xlink="http://www.w3.org/1999/xlink" xml:space="preserve" overflow="hidden"><g transform="translate(-1192 -230)"><path d="M1210.5 1238.5C1210.5 691.738 1653.74 248.5 2200.5 248.5 2747.26 248.5 3190.5 691.738 3190.5 1238.5 3190.5 1785.26 2747.26 2228.5 2200.5 2228.5 1653.74 2228.5 1210.5 1785.26 1210.5 1238.5Z" stroke="#000000" stroke-width="36.6667" stroke-miterlimit="8" fill="none" fill-rule="evenodd"/><path d="M1210.5 1238.5 3190.5 1238.5" stroke="#000000" stroke-width="36.6667" stroke-miterlimit="8" fill="none" fill-rule="evenodd"/><path d="M2200.5 248.5 2200.5 2228.5" stroke="#000000" stroke-width="36.6667" stroke-miterlimit="8" fill="none" fill-rule="evenodd"/><path d="M1499.96 537.464 2900.04 1937.54" stroke="#000000" stroke-width="36.6667" stroke-miterlimit="8" fill="none" fill-rule="evenodd"/><path d="M2900.03 537.464 1499.96 1937.54" stroke="#000000" stroke-width="36.6667" stroke-miterlimit="8" fill="none" fill-rule="evenodd"/><path d="M1540 1238C1540 873.492 1835.49 578 2200 578 2564.51 578 2860 873.492 2860 1238 2860 1602.51 2564.51 1898 2200 1898 1835.49 1898 1540 1602.51 1540 1238Z" fill="#FFFFFF" fill-rule="evenodd"/></g></svg>